<svg width="47" height="47" viewBox="0 0 47 47" fill="none" xmlns="http://www.w3.org/2000/svg">
<g id="Customer Support 1">
<path id="Vector" d="M10.8284 14.3558C10.8284 7.72371 16.3554 2.3501 23.1753 2.3501C29.9952 2.3501 35.5246 7.73083 35.5246 14.3558M35.5246 31.3291V38.0254C35.5246 39.2496 35.0396 40.4237 34.1762 41.2895C33.3129 42.1551 32.142 42.6414 30.9211 42.6414H27.0636M8.4627 27.9074C7.143 27.8788 5.88695 27.3329 4.9637 26.3868C4.04045 25.4407 3.52344 24.1697 3.52344 22.846C3.52344 21.5223 4.04045 20.2513 4.9637 19.3053C5.88695 18.3592 7.143 17.8133 8.4627 17.7847V27.9074ZM37.8807 27.9074C38.5527 27.922 39.221 27.8019 39.8461 27.554C40.4712 27.3063 41.0407 26.9358 41.5211 26.4643C42.0015 25.9929 42.3833 25.43 42.6439 24.8087C42.9045 24.1873 43.0387 23.5201 43.0387 22.846C43.0387 22.172 42.9045 21.5047 42.6439 20.8834C42.3833 20.262 42.0015 19.6992 41.5211 19.2277C41.0407 18.7563 40.4712 18.3858 39.8461 18.138C39.221 17.8902 38.5527 17.7701 37.8807 17.7847V27.9074ZM9.26549 14.3629H12.3889C12.8323 14.3629 13.1917 14.7234 13.1917 15.1679V30.5266C13.1917 30.9711 12.8323 31.3315 12.3889 31.3315H9.26549C8.82216 31.3315 8.4627 30.9711 8.4627 30.5266V15.1679C8.4627 14.7234 8.82216 14.3629 9.26549 14.3629ZM33.964 14.3629H37.0874C37.5308 14.3629 37.8902 14.7234 37.8902 15.1679V30.5266C37.8902 30.9711 37.5308 31.3315 37.0874 31.3315H33.964C33.5206 31.3315 33.1613 30.9711 33.1613 30.5266V15.1679C33.1613 14.7234 33.5206 14.3629 33.964 14.3629ZM23.8242 41.3379H25.7659C26.4839 41.3379 27.0659 41.9215 27.0659 42.6414C27.0659 43.3614 26.4839 43.9451 25.7659 43.9451H23.8242C23.1062 43.9451 22.5241 43.3614 22.5241 42.6414C22.5241 41.9215 23.1062 41.3379 23.8242 41.3379Z" stroke="#246BFD" stroke-width="2.35" stroke-miterlimit="10"/>
</g>
</svg>
