<svg width="78" height="67" viewBox="0 0 78 67" fill="none" xmlns="http://www.w3.org/2000/svg">
<path id="Ellipse 88" d="M67.3791 65.0938C72.5076 59.5529 75.8925 52.6256 77.1122 45.1748C78.332 37.724 77.3328 30.079 74.2389 23.192C71.1451 16.3051 66.0934 10.4805 59.7131 6.44387C53.3329 2.40723 45.906 0.336931 38.3576 0.490836C30.8091 0.644741 23.4728 3.01605 17.2624 7.3094C11.0519 11.6027 6.24188 17.6284 3.43134 24.6357C0.620795 31.6431 -0.0660141 39.3225 1.45646 46.7174C2.97892 54.1123 6.64338 60.8958 11.9934 66.2231L20.7142 57.465C17.0828 53.849 14.5955 49.2445 13.5621 44.2251C12.5287 39.2056 12.9948 33.9931 14.9026 29.2367C16.8103 24.4803 20.0752 20.3902 24.2907 17.476C28.5062 14.5618 33.4858 12.9522 38.6095 12.8478C43.7332 12.7433 48.7743 14.1486 53.1051 16.8885C57.4358 19.6285 60.8648 23.582 62.9648 28.2567C65.0648 32.9314 65.7431 38.1206 64.9151 43.178C64.0872 48.2354 61.7896 52.9375 58.3085 56.6985L67.3791 65.0938Z" fill="#2CD8B1"/>
</svg>
