<svg width="46" height="46" viewBox="0 0 46 46" fill="none" xmlns="http://www.w3.org/2000/svg">
<g id="Frame 7">
<g id="Group 736">
<path id="Vector" d="M40.0606 5.17432H5.94091C3.93052 5.17432 2.30078 6.80406 2.30078 8.81445V28.484C2.30078 30.4943 3.93052 32.1241 5.94091 32.1241H40.0606C42.071 32.1241 43.7008 30.4943 43.7008 28.484V8.81445C43.7008 6.80406 42.071 5.17432 40.0606 5.17432Z" stroke="#246BFD" stroke-width="2.3" stroke-miterlimit="10"/>
<path id="Vector_2" d="M24.375 32.1235H21.6289V36.681H24.375V32.1235Z" stroke="#246BFD" stroke-width="2.3" stroke-miterlimit="10"/>
<path id="Vector_3" d="M30.2341 36.6875H15.7781C15.3548 36.6875 15.0117 37.0306 15.0117 37.4538V40.0257C15.0117 40.449 15.3548 40.7921 15.7781 40.7921H30.2341C30.6573 40.7921 31.0004 40.449 31.0004 40.0257V37.4538C31.0004 37.0306 30.6573 36.6875 30.2341 36.6875Z" stroke="#246BFD" stroke-width="2.3" stroke-miterlimit="10"/>
</g>
</g>
</svg>
