<svg width="53" height="53" viewBox="0 0 53 53" fill="none" xmlns="http://www.w3.org/2000/svg">
<g id="Frame 8">
<g id="Group 735">
<path id="Vector" d="M50.3486 24.3696H43.1445" stroke="#246BFD" stroke-width="2.65" stroke-miterlimit="10"/>
<path id="Vector_2" d="M47.017 35.4838L41.7302 31.8817" stroke="#246BFD" stroke-width="2.65" stroke-miterlimit="10"/>
<path id="Vector_3" d="M41.7302 16.8517L47.017 13.2496" stroke="#246BFD" stroke-width="2.65" stroke-miterlimit="10"/>
<path id="Vector_4" d="M39.5711 16.2061V32.4842C39.5717 32.7211 39.5205 32.9554 39.4211 33.1705C39.3217 33.3856 39.1766 33.5764 38.9958 33.7296C38.815 33.8829 38.603 33.9947 38.3745 34.0575C38.146 34.1203 37.9065 34.1324 37.6728 34.093L13.5452 30.2679L9.84824 29.6794V19.0773H9.80078L37.7155 14.6068C37.9459 14.5702 38.1814 14.5843 38.4057 14.648C38.63 14.7118 38.8377 14.8237 39.0144 14.9759C39.191 15.1282 39.3323 15.3171 39.4285 15.5296C39.5247 15.742 39.5733 15.9729 39.5711 16.2061Z" stroke="#246BFD" stroke-width="2.65" stroke-miterlimit="10"/>
<path id="Vector_5" d="M9.83262 19.0776V29.656L9.78516 29.6465V19.0776H9.83262Z" stroke="#246BFD" stroke-width="2.65" stroke-miterlimit="10"/>
<path id="Vector_6" d="M9.83357 19.0779V29.6562H3.9915C3.63487 29.655 3.29326 29.5124 3.04152 29.2598C2.78978 29.0072 2.64844 28.6651 2.64844 28.3084V20.4257C2.64844 20.0682 2.79044 19.7254 3.0432 19.4726C3.29596 19.2199 3.63878 19.0779 3.99624 19.0779H9.83357Z" stroke="#246BFD" stroke-width="2.65" stroke-miterlimit="10"/>
<path id="Vector_7" d="M13.5466 30.2689V38.6026C13.5454 38.783 13.4728 38.9556 13.3448 39.0827C13.2167 39.2099 13.0436 39.2812 12.8632 39.2812H10.4903C10.3116 39.2812 10.1402 39.2102 10.0138 39.0838C9.88741 38.9574 9.81641 38.786 9.81641 38.6073V29.6567L13.5466 30.2689Z" stroke="#246BFD" stroke-width="2.65" stroke-miterlimit="10"/>
</g>
</g>
</svg>
