<svg width="52" height="52" viewBox="0 0 52 52" fill="none" xmlns="http://www.w3.org/2000/svg">
<g id="Home 2">
<g id="Group 378">
<path id="Vector" d="M41.6498 48.9103V26.7514H45.9364C46.232 26.7523 46.521 26.6647 46.7665 26.5002C47.012 26.3356 47.2027 26.1015 47.3143 25.8279C47.4259 25.5542 47.4533 25.2535 47.3928 24.9642C47.3324 24.6749 47.1869 24.4103 46.9751 24.2042L26.7041 4.32059C26.4243 4.05011 26.0504 3.89893 25.6613 3.89893C25.2722 3.89893 24.8982 4.05011 24.6184 4.32059L4.3474 24.2042C4.13562 24.4103 3.9902 24.6749 3.92978 24.9642C3.86935 25.2535 3.89672 25.5542 4.00826 25.8279C4.11988 26.1015 4.31063 26.3356 4.55613 26.5002C4.80154 26.6647 5.09056 26.7523 5.3861 26.7514H10.019V48.9103H41.6498Z" stroke="#246BFD" stroke-width="2.08" stroke-miterlimit="10"/>
<path id="Vector_2" d="M30.8687 34.6045H20.457V48.9072H30.8687V34.6045Z" stroke="#246BFD" stroke-width="2.08" stroke-miterlimit="10"/>
</g>
</g>
</svg>
