<svg width="47" height="47" viewBox="0 0 47 47" fill="none" xmlns="http://www.w3.org/2000/svg">
<g id="Profit 1">
<g id="Group 314">
<g id="Group 313">
<path id="Vector" d="M12.8232 30.5339H16.1805C16.6258 30.5339 17.0527 30.7108 17.3675 31.0256C17.6824 31.3404 17.8592 31.7674 17.8592 32.2126V45.7007H11.1445V32.2126C11.1445 31.7674 11.3214 31.3404 11.6362 31.0256C11.951 30.7108 12.378 30.5339 12.8232 30.5339V30.5339Z" stroke="#246BFD" stroke-width="2.35" stroke-miterlimit="10"/>
<path id="Vector_2" d="M23.8466 22.3752H27.204C27.6492 22.3752 28.0762 22.5521 28.391 22.8669C28.7058 23.1817 28.8827 23.6087 28.8827 24.0539V45.7004H22.168V24.0539C22.168 23.6087 22.3448 23.1817 22.6596 22.8669C22.9745 22.5521 23.4014 22.3752 23.8466 22.3752V22.3752Z" stroke="#246BFD" stroke-width="2.35" stroke-miterlimit="10"/>
<path id="Vector_3" d="M35.9328 14.6365H39.2902C39.7354 14.6365 40.1624 14.8133 40.4772 15.1281C40.792 15.443 40.9688 15.8699 40.9688 16.3151V45.6919H34.2542V16.3151C34.2542 15.8699 34.431 15.443 34.7458 15.1281C35.0606 14.8133 35.4876 14.6365 35.9328 14.6365Z" stroke="#246BFD" stroke-width="2.35" stroke-miterlimit="10"/>
<path id="Vector_4" d="M5.875 21.0902L35.0335 3.06128" stroke="#246BFD" stroke-width="2.35" stroke-miterlimit="10"/>
</g>
<path id="Vector_5" d="M30.3828 1.54248L35.8217 2.82666" stroke="#246BFD" stroke-width="2.35" stroke-miterlimit="10" stroke-linecap="round"/>
<path id="Vector_6" d="M35.8037 2.92578L34.5195 8.36468" stroke="#246BFD" stroke-width="2.35" stroke-miterlimit="10" stroke-linecap="round"/>
</g>
</g>
</svg>
