<svg width="47" height="47" viewBox="0 0 47 47" fill="none" xmlns="http://www.w3.org/2000/svg">
<g id="Shield 1">
<path id="Vector" d="M37.3755 32.1788L38.5404 32.3027L38.5406 32.3012L37.3755 32.1788ZM33.5921 37.6798L32.9632 36.6913L32.9605 36.6931L33.5921 37.6798ZM25.6461 42.7651L26.1721 43.812L26.2264 43.7847L26.2776 43.7519L25.6461 42.7651ZM19.6745 42.6857L18.9983 43.6425L19.0572 43.6841L19.1207 43.7182L19.6745 42.6857ZM12.5475 37.6493L13.2236 36.6925L13.2017 36.677L13.1791 36.6625L12.5475 37.6493ZM9.16135 32.405L7.99635 32.5284L7.9988 32.5515L8.00217 32.5745L9.16135 32.405ZM7.04651 12.4484H5.875V12.5103L5.88153 12.5719L7.04651 12.4484ZM11.8018 7.91316L12.0316 9.06192L12.0961 9.04902L12.1589 9.02895L11.8018 7.91316ZM21.1046 4.9365L20.7568 3.81778L20.7477 3.82071L21.1046 4.9365ZM24.1608 4.90593L24.4914 3.78201L24.4862 3.78053L24.1608 4.90593ZM34.5516 7.96206L34.221 9.08596L34.2788 9.10295L34.338 9.11392L34.5516 7.96206ZM39.4414 12.5218L40.6065 12.6443L40.6129 12.5832V12.5218H39.4414ZM17.8413 23.4811C17.3856 23.0217 16.6439 23.0188 16.1845 23.4744C15.7252 23.93 15.7221 24.6718 16.1777 25.1312L17.8413 23.4811ZM20.7564 28.0835L19.9246 28.9085L20.7177 29.7081L21.5479 28.947L20.7564 28.0835ZM30.2823 20.9401C30.7592 20.5029 30.7914 19.7618 30.3542 19.2848C29.917 18.8079 29.1759 18.7757 28.699 19.2129L30.2823 20.9401ZM36.2105 32.0549C36.0303 33.7496 34.9352 35.437 32.9632 36.6913L34.2208 38.6682C36.6497 37.1232 38.2683 34.8621 38.5404 32.3027L36.2105 32.0549ZM32.9605 36.6931L25.0146 41.7785L26.2776 43.7519L34.2235 38.6665L32.9605 36.6931ZM25.12 41.7184C24.3592 42.1008 23.5175 42.2944 22.6662 42.2832L22.635 44.626C23.8623 44.6423 25.0755 44.3631 26.1721 43.812L25.12 41.7184ZM22.6662 42.2832C21.8147 42.2718 20.9785 42.0558 20.2281 41.6534L19.1207 43.7182C20.2023 44.2983 21.4077 44.6097 22.635 44.626L22.6662 42.2832ZM20.3505 41.729L13.2236 36.6925L11.8714 38.6059L18.9983 43.6425L20.3505 41.729ZM13.1791 36.6625C12.4133 36.1724 11.7618 35.5235 11.2686 34.7597L9.30021 36.0307C9.97546 37.0764 10.8675 37.9649 11.916 38.636L13.1791 36.6625ZM11.2686 34.7597C10.7754 33.9959 10.4521 33.1351 10.3205 32.2355L8.00217 32.5745C8.1823 33.8062 8.62496 34.9849 9.30021 36.0307L11.2686 34.7597ZM10.3263 32.2815L8.2115 12.325L5.88153 12.5719L7.99635 32.5284L10.3263 32.2815ZM8.21803 12.4484C8.21803 11.1196 9.50847 9.56654 12.0316 9.06192L11.5721 6.7644C8.47193 7.38442 5.875 9.54761 5.875 12.4484H8.21803ZM12.1589 9.02895L21.4617 6.05228L20.7477 3.82071L11.4448 6.79738L12.1589 9.02895ZM21.4526 6.05518C22.2274 5.81423 23.0559 5.80595 23.8353 6.03135L24.4862 3.78053C23.2662 3.42775 21.9696 3.44072 20.7568 3.81782L21.4526 6.05518ZM23.8303 6.02985L34.221 9.08596L34.8822 6.83815L24.4914 3.78203L23.8303 6.02985ZM34.338 9.11392C36.9228 9.59341 38.2699 11.1732 38.2699 12.5218H40.6129C40.6129 9.56735 37.9138 7.39425 34.7653 6.81019L34.338 9.11392ZM38.2763 12.3993L36.2104 32.0563L38.5406 32.3012L40.6065 12.6443L38.2763 12.3993ZM16.1777 25.1312L19.9246 28.9085L21.588 27.2585L17.8413 23.4811L16.1777 25.1312ZM28.699 19.2129L19.9646 27.22L21.5479 28.947L30.2823 20.9401L28.699 19.2129Z" fill="#246BFD"/>
</g>
</svg>
