<svg width="20" height="21" viewBox="0 0 20 21" fill="none" xmlns="http://www.w3.org/2000/svg">
<path id="Vector" d="M2.16518 19.7041L17.4601 4.40913L17.1818 15.8442C17.1672 16.443 17.6407 16.9402 18.2395 16.9548C18.8375 16.9693 19.335 16.4963 19.35 15.8971L19.6674 2.83744C19.667 2.25821 19.442 1.71348 19.0322 1.30369C18.6228 0.894277 18.0777 0.668872 17.4724 0.669255L4.43877 0.986661C4.14897 0.99356 3.88868 1.11355 3.69854 1.30369C3.49614 1.50609 3.37347 1.78823 3.38113 2.0972C3.3957 2.69598 3.89251 3.16903 4.49129 3.15446L15.9509 2.85162L0.631811 18.1707C0.208602 18.5939 0.208601 19.2809 0.63181 19.7041C1.05502 20.1273 1.74197 20.1273 2.16518 19.7041Z" fill="#246BFD"/>
</svg>
